.
..............................Site Info...........................

 -   http://www.scenetime.com  *_*   

SceneTime is going to Close sign up on march/1, hurry up! get in before the doors are closed.

     We care to share . Join us on  http://www.scenetime.com 

    Be the first to get new release at  http://www.scenetime.com

        Seed back for speed


...................................NFO:.................................................                                                                                                     
       
     
     
       
       
     
     
                                         
                                         
                EXVID                    
                                         
         
                                         
         Filled the Archives             
                                         
         
                                         
                With:                    
                                         
         
                                         
                                    
     E240                           
                                    
     SP               (C) 2009      
                                         
     
     
     
                                                                                  
                                                                                   
                 Guarding.Tess.1994.iNTERNAL.DVDRip.XviD-EXViDiNT                   
                                                                                   
                                                                                  
     
                                                                                               
EXViD aims to iNTERNAL those releases which have been lost in the archives.
EXViD aims to PRE non-internal releases which have poor sources and are likely skipped by others. 
http://www.imdb.com/title/tt0109951/
Subtitles: EN, FR, DE, IT, ES, NL, AR, BG, CS, DA, FI, EL, IW, HI, HU, IS, NO, PL, PT, SV, TR
Date: 2012.02

Director: Hugh Wilson

Genres: Comedy

Plot:
Doug is a Secret Service Agent who has just completed his stint in charge protecting Tess
Carlisle, widow of a former U.S. President, and close personal friend of the President. He finds
that she has requested that he not be rotated but instead return to be her permanent detail. Doug
is crushed. He wants off her detail. She is very difficult to guard and makes her detail crazy
with her whims and demands. Doug returns with no idea of how to continue dealing with her.

Cast:
Shirley MacLaine...	Tess Carlisle
Nicolas Cage	...	Doug Chesnic
Austin Pendleton...	Earl Fowler
Edward Albert	...	Barry Carlisle
James Rebhorn	...	Howard Schaeffer
Richard Griffiths	...	Frederick
John Roselius	...	Tom Bahlor
David Graf	...	Lee Danielson
Don Yesso	...	Ralph Buoncristiani
James Lally	...	Joe Spector
Brant von Hoffman	...	Bob Hutcherson (as Brant Von Hoffman)
Harry Lennix	...	Kenny Young (as Harry J. Lennix)
Susan Blommaert	...	Kimberly Cannon
Dale Dye	...	Charles Ivy
James Handy	...	Neal Carlo

Stats:
Format                                   : AVI
Format/Info                              : Audio Video Interleave
File size                                : 702 MiB
Duration                                 : 1h 31mn
Overall bit rate mode                    : Variable
Overall bit rate                         : 1 071 Kbps

Video
ID                                       : 0
Format                                   : MPEG-4 Visual
Format profile                           : Advanced Simple@L5
Format settings, BVOP                    : 2
Format settings, QPel                    : No
Format settings, GMC                     : No warppoints
Format settings, Matrix                  : Default (H.263)
Codec ID                                 : XVID
Codec ID/Hint                            : XviD
Duration                                 : 1h 31mn
Bit rate                                 : 935 Kbps
Width                                    : 640 pixels
Height                                   : 352 pixels
Display aspect ratio                     : 16:9
Frame rate                               : 25.000 fps
Color space                              : YUV
Chroma subsampling                       : 4:2:0
Bit depth                                : 8 bits
Scan type                                : Progressive
Compression mode                         : Lossy
Bits/(Pixel*Frame)                       : 0.166
Stream size                              : 613 MiB (87%)
Writing library                          : XviD 64

Audio
ID                                       : 1
Format                                   : MPEG Audio
Format version                           : Version 1
Format profile                           : Layer 3
Mode                                     : Joint stereo
Mode extension                           : MS Stereo
Codec ID                                 : 55
Codec ID/Hint                            : MP3
Duration                                 : 1h 31mn
Bit rate mode                            : Variable
Bit rate                                 : 123 Kbps
Channel(s)                               : 2 channels
Sampling rate                            : 48.0 KHz
Compression mode                         : Lossy
Stream size                              : 80.3 MiB (11%)
Alignment                                : Aligned on interleaves
Interleave, duration                     : 24 ms (0.60 video frame)
Interleave, preload duration             : 471 ms



Release notes:
Enjoy!

Looking for:
75TB+ Archives
DUTCH/FLEMiSH Archives
                                                                                                    
Greets: CRBS EPiSODE FiCO FLS iLS KLASSiGER LiPSYNC MADE NODLABS RUNNER SPRiNTER      
   

                                                                    ASCII DONE BY XX^NFO 2oo9     
 

RLS-Crc: 415243414445:42EECD90